<?xml version="1.0" encoding="UTF-8"?>
<svg width="752pt" height="752pt" version="1.1" viewBox="0 0 752 752" xmlns="http://www.w3.org/2000/svg">
 <g>
  <path d="m420.4 309.4c0 4.0898-3.3125 7.4023-7.3984 7.4023s-7.3984-3.3125-7.3984-7.4023c0-4.0859 3.3125-7.3984 7.3984-7.3984s7.3984 3.3125 7.3984 7.3984"/>
  <path d="m553.59 191.01c0 4.0859-3.3125 7.4023-7.3984 7.4023-4.0859 0-7.4023-3.3164-7.4023-7.4023 0-4.0859 3.3164-7.3984 7.4023-7.3984 4.0859 0 7.3984 3.3125 7.3984 7.3984"/>
  <path d="m563.36 281.14-92.496-92.496c-2.8945-2.8906-7.582-2.8906-10.473 0s-2.8906 7.5781 0 10.473l4.4023 4.3633-66.078 66.082c-18.906-7.9375-39.211-12-59.715-11.953-41.215 0-80.738 16.371-109.88 45.516-29.141 29.141-45.512 68.664-45.512 109.88s16.371 80.738 45.512 109.88c29.145 29.145 68.668 45.516 109.88 45.516 41.211 0 80.738-16.371 109.88-45.516 29.141-29.141 45.516-68.664 45.516-109.88 0.042968-20.516-4.0195-40.832-11.953-59.754l66.082-66.043 4.3672 4.4023-0.003906 0.003906c1.3984 1.3828 3.2891 2.1562 5.2539 2.1445 1.9531 0 3.8281-0.76953 5.2188-2.1445 1.3867-1.3906 2.168-3.2734 2.168-5.2383 0-1.9609-0.78125-3.8477-2.168-5.2344zm-94.867 65.266c-2.1953 2.1836-2.8008 5.5078-1.5156 8.3242 8.375 18.281 12.68 38.164 12.617 58.273 0 37.289-14.812 73.047-41.18 99.414-26.367 26.367-62.129 41.18-99.414 41.18-37.289 0-73.051-14.812-99.418-41.18-26.363-26.367-41.176-62.125-41.176-99.414s14.812-73.047 41.176-99.414c26.367-26.367 62.129-41.18 99.418-41.18 20.125-0.042969 40.02 4.2852 58.309 12.691 2.8242 1.25 6.1289 0.61719 8.2891-1.5938l69.668-69.555 62.898 62.898z"/>
  <path d="m339 316.8c-34.367 0-66.125 18.336-83.309 48.098-17.184 29.762-17.184 66.434 0 96.195 17.184 29.762 48.941 48.098 83.309 48.098 34.367 0 66.125-18.336 83.309-48.098 17.184-29.762 17.184-66.434 0-96.195-17.184-29.762-48.941-48.098-83.309-48.098zm81.062 88.797h-37c-2.1719-26.094-11.52-51.074-27.008-72.184 16.953 3.6719 32.297 12.648 43.805 25.625 11.508 12.98 18.586 29.285 20.203 46.559zm-110.33 0c2.4062-32.965 20.238-58.938 29.266-70.297 9.0664 11.098 26.859 37.184 29.266 70.297zm58.531 14.801c-2.4062 32.965-20.203 58.938-29.266 70.297-9.0664-11.098-26.859-37-29.266-70.297zm-46.398-86.984c-15.484 21.109-24.832 46.09-27.008 72.184h-37c1.6211-17.273 8.6953-33.578 20.207-46.559 11.508-12.977 26.848-21.953 43.801-25.625zm-63.934 86.98h37c2.1758 26.094 11.523 51.074 27.008 72.184-16.953-3.6719-32.293-12.648-43.801-25.625-11.512-12.98-18.586-29.285-20.207-46.559zm98.195 72.184c15.488-21.109 24.836-46.09 27.008-72.184h37c-1.6172 17.273-8.6953 33.578-20.203 46.559-11.508 12.977-26.852 21.953-43.805 25.625z"/>
  <path d="m494.4 294.61c0 4.0859-3.3164 7.3984-7.4023 7.3984-4.0859 0-7.3984-3.3125-7.3984-7.3984 0-4.0859 3.3125-7.4023 7.3984-7.4023 4.0859 0 7.4023 3.3164 7.4023 7.4023"/>
 </g>
</svg>
