<?xml version="1.0" encoding="UTF-8"?>
<svg width="752pt" height="752pt" version="1.1" viewBox="0 0 752 752" xmlns="http://www.w3.org/2000/svg">
 <g>
  <path d="m377.39 380.72c3.8047 2.0703 8.0195 3.2852 12.473 3.2852 7 0 13.586-2.7266 18.539-7.6797 4.9531-4.9492 7.6797-11.535 7.6758-18.535-0.003907-7-2.7344-13.582-7.6758-18.523-4.9531-4.9609-11.539-7.6953-18.547-7.6953-6.9961 0-13.574 2.7266-18.535 7.6797-8.3828 8.4023-9.7617 21.07-4.3867 30.996l-34.965 34.973-93.922-93.914-5.2344 5.2344c-49.098 49.094-54.84 124.87-15.121 180.38l-65.043 21.688 76.434 76.426 21.641-65.121c23.605 16.797 52.043 25.996 81.223 25.996 37.434 0 72.645-14.598 99.141-41.098l5.2344-5.2344-93.891-93.887zm4.3945-31c2.1562-2.1562 5.0234-3.3438 8.0703-3.3438 3.0547 0 5.918 1.1875 8.082 3.3555 2.1562 2.1602 3.3438 5.0234 3.3438 8.0703 0 3.043-1.1836 5.9102-3.3438 8.0664-4.3164 4.3164-11.836 4.3125-16.145 0-4.4492-4.4531-4.4492-11.699-0.007812-16.148zm-159.18 217.9-42.555-42.555 47.496-15.84c0.13672 0.15234 0.27734 0.28516 0.41406 0.4375 1.6328 1.8008 3.2578 3.5352 4.8594 5.1406 1.5742 1.5742 3.2812 3.1758 5.0859 4.8164 0.17578 0.15625 0.31641 0.3125 0.5 0.46875zm192.64-58.195c-22.988 20.48-52.285 31.68-83.293 31.68-29.305 0-57.801-10.316-80.188-28.992-3.2227-2.7422-6-5.2852-8.4844-7.7695-2.0664-2.0664-4.1836-4.3906-6.3086-6.832-0.46875-0.53906-0.9375-1.0508-1.4102-1.6016 0 0 0-0.003906-0.003907-0.003906-40.211-48.191-38.664-117.21 2.6406-163.52z"/>
  <path d="m271.29 306.25-10.465-10.465 130.34-130.34 10.465 10.465z"/>
  <path d="m463.89 187.34 10.465 10.465-130.34 130.34-10.465-10.465z"/>
  <path d="m557.11 188.75 10.465 10.465-130.35 130.35-10.465-10.465z"/>
  <path d="m428.18 412.33 130.35-130.35 10.465 10.465-130.35 130.35z"/>
  <path d="m460.55 495.51-10.465-10.465 130.34-130.34 10.465 10.465z"/>
 </g>
</svg>
