<svg xmlns="http://www.w3.org/2000/svg" xmlns:xlink="http://www.w3.org/1999/xlink" viewBox="0 0 157.5 160.03"><defs><style>.cls-1{fill:url(#linear-gradient);}</style><linearGradient id="linear-gradient" y1="80.02" x2="157.5" y2="80.02" gradientUnits="userSpaceOnUse"><stop offset="0" stop-color="#f11687"/><stop offset="1" stop-color="#f94f10"/></linearGradient></defs><g id="Layer_2" data-name="Layer 2"><g id="Layer_1-2" data-name="Layer 1"><path class="cls-1" d="M157.5,80A15.75,15.75,0,1,1,126,80a15.88,15.88,0,0,0-15.75-16A15.88,15.88,0,0,1,94.49,48,15.75,15.75,0,1,0,63,48,15.88,15.88,0,0,1,47.24,64a16,16,0,0,0,0,32A15.88,15.88,0,0,1,63,112,15.75,15.75,0,1,0,78.75,96,16,16,0,1,1,94.49,80a15.89,15.89,0,0,0,15.76,16,16,16,0,0,1,0,32,15.88,15.88,0,0,0-15.76,16A15.75,15.75,0,1,1,63,144a15.88,15.88,0,0,0-15.76-16A15.88,15.88,0,0,1,31.5,112,15.87,15.87,0,0,0,15.75,96a16,16,0,0,1,0-32A15.87,15.87,0,0,0,31.5,48,15.87,15.87,0,0,1,47.24,32,15.88,15.88,0,0,0,63,16a15.75,15.75,0,1,1,31.49,0,15.88,15.88,0,0,0,15.76,16A15.87,15.87,0,0,1,126,48a15.87,15.87,0,0,0,15.74,16A15.88,15.88,0,0,1,157.5,80Z"/></g></g></svg>