<?xml version="1.0" encoding="UTF-8"?>
<svg width="752pt" height="752pt" version="1.1" viewBox="0 0 752 752" xmlns="http://www.w3.org/2000/svg">
 <path d="m288.18 511.14c1.3359 1.293 3.0977 1.9766 4.8828 1.9766 0.95312 0 1.9141-0.19141 2.8281-0.59766l31.883-14.051c14.941 7.2188 31.543 11.02 48.234 11.02 61.145 0 110.9-49.746 110.9-110.9 0-61.148-49.754-110.88-110.9-110.88-61.145 0-110.89 49.746-110.89 110.89 0 29.254 11.695 57.465 32.242 78.164l-10.789 26.719c-1.0703 2.6445-0.42969 5.6758 1.6172 7.6602zm-9.0469-112.54c0-53.414 43.457-96.871 96.871-96.871s96.871 43.457 96.871 96.871c0.003906 53.418-43.453 96.875-96.871 96.875-15.805 0-30.875-3.6836-44.793-10.961-1.0156-0.53125-2.1328-0.80078-3.2461-0.80078-0.96094 0-1.9258 0.19922-2.8281 0.59766l-19.109 8.4219 6.1016-15.102c1.0898-2.7031 0.39453-5.8047-1.75-7.7852-19.855-18.297-31.246-44.266-31.246-71.246zm-97.414 20.961c0.16797 0 0.33594-0.003907 0.50391-0.019532 3.8633-0.26953 6.7734-3.625 6.5-7.4883-0.32031-4.5469-0.48438-9.0703-0.48438-13.453 0-85.09 56.152-158.48 137.45-180.94 6.082 22.086 26.332 38.359 50.324 38.359 28.785 0 52.203-23.418 52.203-52.203 0-28.781-23.422-52.199-52.207-52.199-28.727 0-52.105 23.324-52.199 52.031-41.23 11.035-78.457 35.312-105.33 68.836-28.543 35.602-44.262 80.391-44.262 126.12 0 4.707 0.17188 9.5664 0.51953 14.445 0.26563 3.6914 3.3438 6.5117 6.9883 6.5117zm194.29-253.92c21.051 0 38.176 17.129 38.176 38.176 0.003907 21.051-17.125 38.18-38.176 38.18s-38.176-17.129-38.176-38.176c0-21.051 17.129-38.18 38.176-38.18zm105.31 388.43c-31.129 21.129-67.543 32.297-105.31 32.297-49.801 0-96.215-19.047-131.51-53.777 9.2852-9.4258 15.027-22.355 15.027-36.605 0-28.785-23.418-52.203-52.203-52.203-28.785 0.003906-52.195 23.422-52.195 52.207s23.418 52.203 52.203 52.203c9.4531 0 18.316-2.5352 25.973-6.9492 17.773 17.805 38.41 31.957 61.418 42.098 25.672 11.316 53.02 17.051 81.297 17.051 40.59 0 79.73-12.008 113.19-34.715 3.2031-2.1758 4.0391-6.5352 1.8633-9.7383-2.1875-3.207-6.5469-4.043-9.75-1.8672zm-312.17-58.082c0-21.051 17.129-38.176 38.176-38.176 21.051 0 38.176 17.129 38.176 38.176 0 21.051-17.129 38.176-38.176 38.176-21.047 0.003906-38.176-17.125-38.176-38.176zm244.43-97.391c0-4.8398 3.9258-8.7656 8.7656-8.7656 4.8398 0 8.7656 3.9258 8.7656 8.7656s-3.9258 8.7656-8.7656 8.7656c-4.8359 0.003906-8.7656-3.9258-8.7656-8.7656zm-92.668 0c0-4.8398 3.9258-8.7656 8.7656-8.7656 4.8398 0 8.7656 3.9258 8.7656 8.7656s-3.9258 8.7656-8.7656 8.7656c-4.8438 0.003906-8.7656-3.9258-8.7656-8.7656zm46.332 0c0-4.8398 3.9258-8.7656 8.7656-8.7656s8.7656 3.9258 8.7656 8.7656-3.9219 8.7656-8.7656 8.7656c-4.8398 0.003906-8.7656-3.9258-8.7656-8.7656zm203.7 52.301c4.5469-16.988 6.8555-34.551 6.8555-52.297 0-38.586-10.926-76.094-31.602-108.46-20.121-31.508-48.496-56.785-82.055-73.105-3.4844-1.6914-7.6797-0.24219-9.3711 3.2422-1.6914 3.4844-0.24219 7.6797 3.2422 9.3711 65.242 31.727 105.77 96.461 105.77 168.95 0 15.895-1.9883 31.633-5.9062 46.879-4.2148-1.1016-8.6289-1.6875-13.176-1.6875-28.785 0-52.203 23.418-52.203 52.203 0 28.785 23.418 52.203 52.203 52.203s52.203-23.418 52.203-52.203c-0.003906-19.219-10.453-36.035-25.957-45.094zm-26.25 83.27c-21.051 0-38.176-17.129-38.176-38.176 0-21.051 17.129-38.176 38.176-38.176 21.051 0 38.176 17.129 38.176 38.176 0.003906 21.047-17.121 38.176-38.176 38.176z"/>
</svg>
