<?xml version="1.0" encoding="UTF-8"?>
<svg width="752pt" height="752pt" version="1.1" viewBox="0 0 752 752" xmlns="http://www.w3.org/2000/svg">
 <defs>
  <clipPath id="a">
   <path d="m139.21 139.21h473.58v473.58h-473.58z"/>
  </clipPath>
 </defs>
 <g clip-path="url(#a)">
  <path d="m604.9 193.91v-47.359h-55.25v47.359h-7.8945v78.93h-31.57v-1.3438c0-31.176-16.574-60.461-43.332-76.484l-4.0273-2.4453-4.0234 2.4492c-15.785 9.4727-27.863 23.602-35.281 40.02-11.84-38.043-36.781-71.117-71.668-93.137-4.4219-2.7617-10.418-2.7617-14.84 0-34.887 22.023-59.828 55.094-71.668 93.137-7.3438-16.34-19.5-30.551-35.285-40.02l-4.0234-2.4492-4.0273 2.4492c-26.758 16.023-43.332 45.383-43.332 76.48v226.93l-19.023 19.023-20.441 20.52v26.914h37.332l-7.7344 31.652c-1.5 3-1.5 6.5508 0.078125 9.707 1.8945 3.7109 5.6055 6 9.7891 6h94.715c4.1836 0 7.8945-2.2891 9.7891-6.0781 1.5781-3.0781 1.5-6.6289 0.078124-9.707l-7.7344-31.652h26.363l-7.8945 23.68h100.79l-7.8945-23.68h26.449l-7.7344 31.652c-1.5 3-1.5 6.5508 0.078125 9.707 1.8945 3.7109 5.6055 6.0781 9.7891 6.0781h94.715c4.1836 0 7.8945-2.2891 9.7891-6.0781 1.5781-3.0781 1.5-6.6289 0.078126-9.707l-7.7344-31.652h29.434v47.359h71.039v-418.33h-7.8945zm-11.129 71.035-36.23 36.23v-72.379zm-36.23 74.355 36.23 36.23-36.23 36.148zm0 110.5 32.281 32.281-32.281 32.203zm39.465 47.359v72.379l-36.23-36.23zm-36.227-66.461 36.227-36.148v72.379zm0-110.5 36.227-36.152v72.379zm0-110.5h36.227v36.23zm4.6562-47.359h23.68v31.57h-23.68zm-23.68 126.29v134.18h-31.57v-134.18zm-139.79 228.9-10.18-25.496v-89.586l115.16 115.16h-104.98zm29.285-97.953v-146.73h63.145v209.88zm31.57-208.38c15.551 10.812 26.203 27.469 29.992 45.859h-59.988c3.793-18.391 14.445-35.047 29.996-45.859zm-118.39-55.332c44.516 28.574 71.039 77.113 71.039 130.16v117.77l-23.68-23.68v-91.797c0-26.914-10.496-52.172-29.52-71.195-9.5508-9.5508-26.203-9.5508-35.676 0-19.023 19.023-29.523 44.281-29.523 71.195v91.719l-23.68 23.68v-117.77c0-52.961 26.523-101.5 71.039-130.08zm-47.359 336.16-10.184 25.496h-104.97l75.691-75.617 39.465-39.465zm-71.035-280.83c15.551 10.812 26.203 27.469 29.992 45.859h-59.988c3.7891-18.391 14.445-35.047 29.996-45.859zm-31.574 61.645h63.145v146.65l-63.145 63.145zm72.539 323.61h-81.93l7.6562-31.57h66.539zm14.285-47.359h-126.29v-4.6562l11.129-11.129h115.16zm91.637 23.68h-57.066l2.6055-7.8945h51.777zm18.867-23.68h-39.465v-23.996c0-4.3398-3.5508-7.8945-7.8945-7.8945-4.3398 0-7.8945 3.5508-7.8945 7.8945v23.996h-39.465v-14.602l6.7891-16.969 8.9961-22.496v-206.64c0-22.652 8.8398-44.043 24.863-60.066 3.5508-3.5508 9.7891-3.5508 13.34 0 16.023 16.023 24.863 37.414 24.863 60.066v206.72l8.9961 22.496 6.8711 16.965zm112 47.359h-81.93l7.6562-31.57h66.539zm30.074-47.359h-126.29v-15.785h115.16l11.129 11.207zm-4.6602-31.57-19.02-19.023v-59.906h31.57v91.48zm28.336 78.93v-44.121l39.465 39.465v4.6562z"/>
 </g>
 <path d="m344.43 257.05c-13.023 0-23.68 10.656-23.68 23.68v23.68h47.359v-23.68c0-13.023-10.656-23.68-23.68-23.68zm7.8945 31.57h-15.785v-7.8945c0-4.3398 3.5508-7.8945 7.8945-7.8945 4.3398 0 7.8945 3.5508 7.8945 7.8945z"/>
 <path d="m328.64 470.16c-4.3398 0-7.8945 3.5508-7.8945 7.8945v23.68c0 4.3398 3.5508 7.8945 7.8945 7.8945 4.3398 0 7.8945-3.5508 7.8945-7.8945v-23.68c-0.003906-4.3398-3.5547-7.8945-7.8945-7.8945z"/>
 <path d="m360.21 470.16c-4.3398 0-7.8945 3.5508-7.8945 7.8945v23.68c0 4.3398 3.5508 7.8945 7.8945 7.8945 4.3398 0 7.8945-3.5508 7.8945-7.8945v-23.68c0-4.3398-3.5547-7.8945-7.8945-7.8945z"/>
</svg>
