<?xml version="1.0" encoding="UTF-8"?>
<svg width="752pt" height="752pt" version="1.1" viewBox="0 0 752 752" xmlns="http://www.w3.org/2000/svg">
 <path d="m413.93 371.66c26.988 18.227 58.012 29.613 90.387 33.168 24.051 3.0703 56.996-0.76953 69.141-13.875 16.148-17.102-28.312-70.059-46.535-92.301l4.4297-66.098 12.535-16.078c1.7227-2.2109 1.5234-5.3633-0.46484-7.3438l-3.6445-3.6445 5.3555-5.3555h0.003906c2.1328-2.1719 2.1172-5.6602-0.039062-7.8164-2.1562-2.1523-5.6445-2.1641-7.8164-0.027343l-5.3555 5.3477-3.6523-3.6445c-1.9844-1.9844-5.1328-2.1797-7.3438-0.45312l-15.984 12.523-68.168 2.7734c-20.719-16.789-73.32-60.926-90.293-44.844-18.926 18.23-17.23 69.316-8.1289 99.609l-0.003906 0.003906c5.7578 21.352 15.027 41.598 27.422 59.91l-31.18 31.207c-1.8047 1.8047-2.1484 4.6055-0.83203 6.7891 1.8516 3.0508 3.8203 6.0312 5.8906 8.8984l-32.828 32.816c-0.60937-0.92578-1.2383-1.8047-1.8516-2.7188h0.003906c-0.90625-1.4141-2.4062-2.3438-4.0781-2.5234-1.6719-0.17969-3.3359 0.41016-4.5234 1.6016l-21.348 21.355c-1.8398 1.8438-2.1523 4.7148-0.75 6.9102 9.0469 14.211 21.098 26.266 35.305 35.312 2.1992 1.4023 5.0703 1.0859 6.9102-0.75781l21.355-21.355h0.003906c1.1914-1.1875 1.7773-2.8516 1.5977-4.5234-0.17969-1.6719-1.1094-3.1719-2.5234-4.0781-0.92578-0.58203-1.8516-1.2031-2.7188-1.8516l23.301-23.273v28.371c-1.6758-0.11328-3.3125 0.53516-4.4492 1.7656l-104.52 113.11h-0.003906c-0.73047-0.33984-1.5312-0.51562-2.3398-0.51562h-65.219c-7.3359 0.24219-7.3984 10.84 0 11.098h57.781l-10.422 11.277c-0.94922 1.0273-1.4727 2.375-1.4727 3.7734 0 7.0586 8.7891 9.4258 17.027 11.098 41.383 6.7539 82.793 6.8438 134.94 7.3984 52.121-0.52734 93.598-0.62109 134.94-7.3984 8.2422-1.6641 17.039-4.0312 17.039-11.098h0.003906c0-1.4023-0.52734-2.75-1.4805-3.7734l-10.426-11.277h52.539c7.3438-0.25781 7.3516-10.852 0-11.098h-62.785l-103.98-112.6c-1.1445-1.2344-2.7891-1.8867-4.4688-1.7656v-50.328zm29.598 4.3359c-2.5078-5.1875-4.793-10.527-6.8281-15.957l0.003907 0.003906c8.2109 2.1172 16.555 3.6992 24.973 4.7344 1.668 7.1016 3.7305 14.105 6.1797 20.98-8.3203-2.6992-16.449-5.9609-24.328-9.7617zm-29.387-95.906 0.63672 0.69531 0.003906-0.003906c-1.1719 9.8594-1.3438 19.809-0.51953 29.699-8.1602-1.3047-16.23-3.1406-24.152-5.5-2.6406-8.8281-4.6289-17.836-5.9453-26.953 9.8906 1.7344 19.941 2.4258 29.977 2.0625zm42.492 42.547 0.71094 0.65625h0.003906c-0.34766 10.031 0.33984 20.07 2.0508 29.961-9.1211-1.3125-18.137-3.293-26.969-5.9297-2.3789-7.9219-4.2344-15.996-5.5508-24.16 9.9102 0.85547 19.883 0.67578 29.754-0.52734zm-41.125-0.73047h0.003906c1.0273 7.1211 2.4414 14.18 4.2344 21.145-6.0234-2.2656-11.93-4.8281-17.695-7.6875-2.8555-5.7617-5.418-11.668-7.6758-17.695 6.9609 1.8047 14.016 3.2188 21.137 4.2383zm1.4258 38.367c-1.9531-2.7734-3.8672-5.5508-5.7891-8.6484 4.0898 1.6445 8.25 3.1641 12.449 4.5586 1.2344 3.75 2.5781 7.4492 4.0312 11.098-3.6602-2.2031-7.2227-4.543-10.691-7.0078zm53.953-5.7734c-1.3203-6.9688-2.1445-14.027-2.4609-21.117 8.4727 7.5469 16.77 14.605 24.836 21.07v0.003907c-7.4453 0.60937-14.926 0.62109-22.375 0.035156zm-45.379-42.547c-0.63672-6.7617-0.80859-13.562-0.51562-20.348 6.7891 7.0469 13.875 14.098 20.875 20.875-6.7891 0.27734-13.594 0.085937-20.359-0.57422zm-42.547-45.371c-0.59766-7.4492-0.59766-14.934 0-22.383 6.4766 8.0742 13.531 16.383 21.07 24.844-7.0859-0.33594-14.141-1.1719-21.105-2.5039zm-11.285-2.4961c-8.0664-2.0742-15.992-4.668-23.723-7.7695-1.9336-7.8242-3.3438-15.77-4.2305-23.781 9.4922 2.3867 19.203 3.7852 28.98 4.1719-1.2461 9.0664-1.6055 18.234-1.0625 27.371zm1.0352 11.684c1.0273 8.418 2.6094 16.762 4.7383 24.973-5.4375-2.043-10.777-4.3281-15.957-6.8359-3.8047-7.8789-7.0703-16.012-9.7656-24.336 6.8633 2.4414 13.855 4.4922 20.949 6.1523zm8.582 38.109c1.3867 4.1992 2.9062 8.3438 4.5508 12.43-2.8867-1.793-5.7734-3.6992-8.6211-5.7734-2.4648-3.4609-4.8203-7.0234-7.0664-10.691 3.6406 1.4258 7.3398 2.7539 11.102 3.9883zm99.895 75.68h0.003906c-3.0977-7.7383-5.6953-15.664-7.7695-23.734 9.1328 0.55078 18.297 0.20703 27.359-1.0273 0.39453 9.7773 1.8008 19.488 4.1914 28.977-8.0273-0.88672-15.988-2.3125-23.828-4.2617zm35.414 5.0312c-2.3125-8.4297-3.832-17.059-4.5352-25.77 15.012 10.645 25.316 17.242 37.82 22.449-9.0156 2.5898-20.523 3.7812-33.285 3.3203zm-12.293-177.39-36.941 18.953c-6.125-5.7734-12.219-11.32-18.285-16.648zm7.0664 8.8438-18.23 35.527c-5.668-5.8477-11.438-11.613-17.305-17.297zm8.7695 7.2227-3.543 53.48c-4.9102-5.5508-10.027-11.098-15.289-16.648zm3.7734-27.953 8.1953 8.1953-6.7227 8.6016-10.078-10.07zm-146.48-25.695c11.969 6.6797 26.574 16.938 42.707 29.887l-24.051 0.98828c-7.1875 0.53516-6.957 10.859 0.23047 11.098 0.22266 0 36.332-1.4805 36.574-1.4883 7.8711 6.7148 15.898 13.875 23.965 21.422l-30.855 15.836c-5.1602 2.6641-3.1836 10.5 2.543 10.48 0.88281 0.003906 1.75-0.20703 2.5352-0.60938l34.309-17.574c7.5938 7.2969 15.105 14.801 22.395 22.375l-17.621 34.336c-1.4023 2.7266-0.32422 6.0742 2.4023 7.4727 2.7305 1.3984 6.0742 0.32422 7.4766-2.4062l15.836-30.867c6.8633 7.3516 13.441 14.68 19.617 21.867l-2.543 37.922v0.003906c-0.10156 1.4727 0.39062 2.9219 1.3633 4.0312 0.96875 1.1094 2.3438 1.7891 3.8164 1.8867 3.0625 0.20703 5.7148-2.1133 5.918-5.1797l1.793-26.398c13.719 16.816 24.539 32.07 31.605 44.582 10.832 19.184 8.2031 23.754 8.1484 23.816-0.92578 1.6758-17.262-0.12109-55.867-29.859-21.422-16.297-46.055-38.477-66.523-59.004-20.645-20.598-42.945-45.324-59.375-67.012-30.188-39.594-30.953-53.93-29.512-55.363 0.035157-0.039062 4.4688-2.6484 23.113 7.7578zm-31.281 7.9258c5.2148 12.488 11.812 22.82 22.449 37.812v0.003906c-8.7148-0.70312-17.348-2.2227-25.777-4.5352-0.45312-12.762 0.73828-24.27 3.3281-33.277zm26.215 145.08c9.3711 12.156 20.27 23.059 32.43 32.43l-26.824 26.824c-12.961-8.418-24.012-19.469-32.43-32.43zm-58.754 79.492 32.977-32.965h-0.003906c3.6289 4.1406 7.5352 8.0312 11.691 11.645l-32.965 33.012c-4.2109-3.5742-8.1211-7.4844-11.699-11.691zm-1.7188 39.191h-0.003906c-10.039-7.0078-18.766-15.734-25.77-25.781l13.383-13.395 0.003906 0.003906c7.1602 9.9102 15.863 18.609 25.777 25.77zm-70.992 123.88 27.52-29.793c6.2422 1.2969 13.164 2.4492 20.609 3.4492l-22.848 30.395c-14.055-1.4492-21.445-2.957-25.281-4.0508zm38.293 5.2148 22.57-30.035c6.5391 0.69531 13.383 1.2852 20.441 1.7852l-13.023 30.004c-10.879-0.47656-20.129-0.99219-29.988-1.7422zm41.891 2.2188 12.949-29.738c7.2695 0.38672 14.707 0.68359 22.199 0.87891l-4.1992 29.598c-10.719-0.17188-21.09-0.39062-30.949-0.73438zm42.121 0.87891 4.1914-29.523c7.6133 0.10156 15.262 0.10156 22.863 0l4.2383 29.527c-10.34 0.082032-20.996 0.082032-31.289 0zm60.473-30.617 12.902 29.738c-9.8594 0.34375-20.238 0.59375-30.93 0.75l-4.207-29.598c7.5234-0.18359 14.957-0.49609 22.238-0.88672zm24.797 29.273-13.023-30.004c7.0586-0.5 13.875-1.0898 20.441-1.7852l22.582 30.047c-9.8477 0.75-19.125 1.2656-29.996 1.75zm43-2.9219-22.836-30.395c7.3984-1 14.355-2.1562 20.598-3.4492l27.52 29.793c-3.8633 1.0977-11.262 2.6055-25.273 4.0547zm-11.098-43.473c-53.195 9.4062-149.84 9.4062-203.09 0l81.809-88.543c13.059 2.2773 26.41 2.2773 39.469 0zm-91.293-98.461 0.003906 0.003906c-6.8164 0.68359-13.684 0.68359-20.496 0v-38.422c2.3867 1.6641 4.8359 3.2734 7.3984 4.7812 2.1836 1.3086 4.9805 0.96875 6.7812-0.83203l6.3633-6.3633z"/>
</svg>
